<?xml version="1.0" encoding="UTF-8"?>
<svg width="160px" height="56px" viewBox="0 0 160 56" version="1.1" xmlns="http://www.w3.org/2000/svg" xmlns:xlink="http://www.w3.org/1999/xlink">
    <!-- Generator: Sketch 53 (72520) - https://sketchapp.com -->
    <title>Text</title>
    <desc>Created with Sketch.</desc>
    <defs>
        <path d="M5.9976391,6.94312516 L2.94312516,9.9976391 L-1.25233157e-13,7.05451394 L5.9976391,6.94312516 Z M-3.73034936e-14,3.0450687 L3.0450687,1.3211654e-13 L5.97909306,2.93402436 L-3.73034936e-14,3.0450687 Z" id="path-1"></path>
    </defs>
    <g id="Page-1" stroke="none" stroke-width="1" fill="none" fill-rule="evenodd">
        <g id="1.0-LP-Home" transform="translate(-812.000000, -2929.000000)">
            <rect fill="#FFFFFF" x="0" y="0" width="1440" height="8631"></rect>
            <g id="App-Download" transform="translate(0.000000, 2622.000000)">
                <polygon id="Background" fill="#FFFFFF" points="0 0 1440 0 1440 528 0 528"></polygon>
                <polygon id="Background" fill="#272E65" points="0 111 1440 111 1440 528 0 528"></polygon>
                <g id="Content" transform="translate(345.000000, 44.000000)">
                    <g id="Text" transform="translate(292.000000, 121.000000)">
                        <g id="Badge/Download/Android" transform="translate(175.000000, 142.000000)">
                            <g>
                                <rect id="Background" fill="#FFFFFF" opacity="0.300000012" x="0" y="0" width="160" height="56" rx="2"></rect>
                                <g id="Icon/Dropdown-Arrow" transform="translate(138.000000, 24.000000)">
                                    <mask id="mask-2" fill="white">
                                        <use xlink:href="#path-1"></use>
                                    </mask>
                                    <use id="Arrows" fill-opacity="0" fill="#FFFFFF" fill-rule="evenodd" xlink:href="#path-1"></use>
                                    <g id="⚙️Atoms/Colour/Grey" stroke-width="1" fill-rule="evenodd" mask="url(#mask-2)" fill="#9EA0A5">
                                        <rect id="Colour" x="0" y="0" width="6" height="10"></rect>
                                    </g>
                                </g>
                                <path d="M37.0956221,20.8218021 L20.8862408,20.8195465 C20.8862408,19.0663995 21.51023,17.4533862 22.559846,16.1633805 L21.1155374,13.5766023 C21.0119023,13.3936071 21.0758479,13.1586531 21.2566603,13.0524742 C21.4352711,12.9440339 21.6645959,13.0095491 21.768231,13.1947999 L23.0956898,15.5714642 C24.5728519,14.0940157 26.6673422,13.1699887 28.9895484,13.1699887 C31.3117547,13.1699887 33.4043257,14.0894468 34.8817136,15.5669531 L36.2069709,13.1947999 C36.3084044,13.0095491 36.5399364,12.9462952 36.7207487,13.0524742 C36.8993539,13.1586531 36.9632996,13.3913515 36.8596645,13.5766023 L35.4175574,16.1611249 C36.4693749,17.4511307 37.0956221,19.0687129 37.0956221,20.8218021 Z M32.0945637,16.7507509 C31.735163,16.7507509 31.4463013,17.0489415 31.4463013,17.4149261 C31.4463013,17.7808933 31.7351405,18.0791012 32.0945637,18.0791012 C32.4517628,18.0791012 32.742826,17.783172 32.742826,17.4149261 C32.742826,17.0489589 32.4539869,16.7507509 32.0945637,16.7507509 Z M25.896444,16.7507509 C25.541452,16.7507509 25.2503831,17.0489415 25.2481816,17.4149261 C25.2481816,17.7808933 25.5392279,18.0791012 25.896444,18.0791012 C26.2558446,18.0791012 26.5469079,17.783172 26.5469079,17.4149261 C26.5469079,17.0489589 26.2558672,16.7507509 25.896444,16.7507509 Z M38.3550032,32.8722662 L38.3550202,32.8745796 L38.3550202,24.5787523 L38.3594288,24.5787523 C38.3572217,24.5471282 38.3550202,24.5154984 38.3550202,24.4838685 C38.3550202,23.5349725 39.1708801,22.7646127 40.1764093,22.7646127 C41.1819385,22.7646127 41.9977985,23.5350304 41.9977985,24.4838685 C41.9977985,24.5154984 41.9977985,24.5471282 41.9955913,24.5787523 L41.9977985,24.5787523 L42,32.8722662 L41.9955913,32.8722662 C41.9250298,33.7601464 41.1377896,34.4627239 40.1786052,34.4627239 C39.2193643,34.4627239 38.4321805,33.7601464 38.3616191,32.8722662 L38.3550032,32.8722662 Z M20.802696,34.5778152 L20.8028371,34.577821 C20.8028371,34.491971 20.809453,34.4083823 20.822679,34.3247936 C20.809453,34.2954251 20.8028371,34.2660566 20.8028371,34.2299098 L20.8028371,21.8474738 C20.8028371,21.7186988 20.9042707,21.6102585 21.0343691,21.6102585 L36.9524726,21.6102585 C37.0803695,21.6102585 37.1840046,21.7164432 37.1840046,21.8474738 L37.1862061,34.2299098 C37.1862061,34.2637952 37.1795959,34.2954251 37.1685657,34.3247936 C37.1817974,34.4083823 37.1862061,34.491971 37.1862061,34.577821 C37.1862061,35.43181 36.5290812,36.1389101 35.6691344,36.2744634 L35.6691344,36.299315 L34.9591167,36.299315 L34.9591167,41.4095423 L34.9525008,41.4095423 C34.8819394,42.2996781 34.0946991,43 33.1355147,43 C32.1763303,43 31.391348,42.2996781 31.3207866,41.4095423 L31.3141764,41.4095423 L31.3141764,36.299315 L26.6747314,36.299315 L26.6747314,41.4095423 L26.6681155,41.4095423 C26.599812,42.2974225 25.8125718,42.9977444 24.8533874,42.9977444 C23.891945,42.9977444 23.1069627,42.2974225 23.0364013,41.4095423 L23.0297854,41.4095423 L23.0297854,36.299315 L22.3153646,36.299315 L22.3153646,36.2722021 C21.4553614,36.1343817 20.802696,35.4295487 20.802696,34.5778152 Z M16,32.8792064 L16.0022185,24.5810657 L16.0044256,24.5810657 C16.0022185,24.5494416 16.0022185,24.5178118 16.0022185,24.4861819 C16.0022185,23.5350304 16.8180784,22.7646705 17.8236076,22.7646705 C18.8291368,22.7646705 19.6449968,23.5350882 19.6449968,24.4861819 C19.6449968,24.517806 19.6449968,24.5494359 19.6427896,24.5810657 L19.6427896,32.8792064 L19.6383809,32.8792064 C19.5678195,33.7670866 18.7827807,34.4696641 17.8213948,34.4696641 C16.8621539,34.4696641 16.0749702,33.7670866 16.0044087,32.8792064 L16,32.8792064 Z" id="Android" fill="#FFFFFF"></path>
                                <text id="ANDROID" font-family="Helvetica" font-size="18" font-weight="normal" line-spacing="22" fill="#FFFFFF">
                                    <tspan x="52" y="35">ANDROID</tspan>
                                </text>
                            </g>
                        </g>
                    </g>
                </g>
            </g>
        </g>
    </g>
</svg>