<?xml version="1.0" encoding="UTF-8"?>
<svg width="160px" height="56px" viewBox="0 0 160 56" version="1.1" xmlns="http://www.w3.org/2000/svg" xmlns:xlink="http://www.w3.org/1999/xlink">
    <!-- Generator: Sketch 53 (72520) - https://sketchapp.com -->
    <title>Text</title>
    <desc>Created with Sketch.</desc>
    <g id="Page-1" stroke="none" stroke-width="1" fill="none" fill-rule="evenodd">
        <g id="1.0-LP-Home" transform="translate(-637.000000, -2929.000000)">
            <rect fill="#FFFFFF" x="0" y="0" width="1440" height="8631"></rect>
            <g id="App-Download" transform="translate(0.000000, 2622.000000)">
                <polygon id="Background" fill="#FFFFFF" points="0 0 1440 0 1440 528 0 528"></polygon>
                <polygon id="Background" fill="#272E65" points="0 111 1440 111 1440 528 0 528"></polygon>
                <g id="Content" transform="translate(345.000000, 44.000000)" fill="#FFFFFF">
                    <g id="Text" transform="translate(292.000000, 121.000000)">
                        <g id="Badge/App-Store/45px-Blue" transform="translate(0.000000, 142.000000)">
                            <rect id="Background" opacity="0.300000012" x="0" y="0" width="160" height="56" rx="2"></rect>
                            <path d="M61.0913454,35.3946284 L55.5320216,35.3946284 L54.1969571,39.4136552 L51.8422486,39.4136552 L57.1079503,24.544292 L59.5544098,24.544292 L64.8201114,39.4136552 L62.4252472,39.4136552 L61.0913454,35.3946284 Z M56.1077911,33.5400532 L60.5144719,33.5400532 L58.3421263,27.0174701 L58.2813347,27.0174701 L56.1077911,33.5400532 Z M76.1922371,33.9937615 C76.1922371,37.3626338 74.4236219,39.5270733 71.7546438,39.5270733 C70.3750723,39.6006473 69.0755914,38.8639638 68.4089607,37.6303853 L68.3584576,37.6303853 L68.3584576,43 L66.1757883,43 L66.1757883,28.5726944 L68.2885286,28.5726944 L68.2885286,30.3758172 L68.3286726,30.3758172 C69.0249192,29.1499724 70.3258013,28.4136059 71.7144998,28.4592643 C74.4132511,28.4592763 76.1922371,30.634241 76.1922371,33.9937615 Z M73.9487762,33.9937615 C73.9487762,31.7989199 72.8362185,30.3559403 71.1387185,30.3559403 C69.4710388,30.3559403 68.3493084,31.8293101 68.3493084,33.9937615 C68.3493084,36.1780899 69.4710388,37.6409345 71.1387185,37.6409345 C72.8362302,37.6409345 73.9487762,36.208492 73.9487762,33.9937615 Z M87.8958269,33.9937615 C87.8958269,37.3626338 86.1272117,39.5270733 83.4582336,39.5270733 C82.0786621,39.6006473 80.7791812,38.8639638 80.1125505,37.6303853 L80.0620474,37.6303853 L80.0620474,43 L77.8793781,43 L77.8793781,28.5726944 L79.9920714,28.5726944 L79.9920714,30.3758172 L80.0322154,30.3758172 C80.728467,29.1499731 82.0293542,28.413611 83.4180543,28.4592763 C86.1168879,28.4592763 87.8958269,30.634241 87.8958269,33.9937615 Z M85.652366,33.9937615 C85.652366,31.7989199 84.5398083,30.3559403 82.8423083,30.3559403 C81.1746286,30.3559403 80.0528982,31.8293101 80.0528982,33.9937615 C80.0528982,36.1780899 81.1746286,37.6409345 82.8423083,37.6409345 C84.53982,37.6409345 85.6523777,36.208492 85.6523777,33.9937615 L85.652366,33.9937615 Z M95.6309376,35.2706732 C95.7926646,36.7452164 97.1977052,37.7133774 99.1177002,37.7133774 C100.957431,37.7133774 102.281021,36.7451685 102.281021,35.4156189 C102.281021,34.2614771 101.482732,33.5704193 99.5925459,33.0968221 L97.7023594,32.6325885 C95.0242086,31.9730824 93.7808951,30.6961587 93.7808951,28.624087 C93.7808951,26.0585531 95.9738882,24.2963575 99.08788,24.2963575 C102.169738,24.2963575 104.282466,26.0585531 104.353582,28.624087 L102.150241,28.624087 C102.018346,27.1401921 100.815177,26.244486 99.0568852,26.244486 C97.2985938,26.244486 96.095436,27.1507292 96.095436,28.4697416 C96.095436,29.5209785 96.8639038,30.1395574 98.7437666,30.6130948 L100.350655,31.0153507 C103.343075,31.7368345 104.586389,32.9623297 104.586389,35.1372704 C104.586389,37.9191273 102.412892,39.661446 98.9559497,39.661446 C95.7215141,39.661446 93.5377055,37.9600546 93.3966259,35.2705654 L95.6309376,35.2706732 Z M109.29698,26.0071605 L109.29698,28.5726944 L111.319073,28.5726944 L111.319073,30.33489 L109.29698,30.33489 L109.29698,36.3113849 C109.29698,37.23984 109.701862,37.672498 110.59075,37.672498 C110.830805,37.6682304 111.070472,37.6510437 111.30875,37.6210097 L111.30875,39.37268 C110.909105,39.4488104 110.502899,39.4832896 110.096407,39.4755849 C107.94357,39.4755849 107.103987,38.6511962 107.103987,36.5487224 L107.103987,30.33489 L105.55789,30.33489 L105.55789,28.5726944 L107.103964,28.5726944 L107.103964,26.0071605 L109.29698,26.0071605 Z M112.490168,33.9937615 C112.490168,30.5828005 114.460642,28.4393994 117.533363,28.4393994 C120.616395,28.4393994 122.577697,30.5827526 122.577697,33.9937615 C122.577697,37.4140863 120.626719,39.5481237 117.533363,39.5481237 C114.441099,39.5481237 112.490168,37.4140743 112.490168,33.9937615 Z M120.353732,33.9937615 C120.353732,31.6539143 119.301966,30.2729243 117.533351,30.2729243 C115.764736,30.2729243 114.71412,31.6644395 114.71412,33.9937615 C114.71412,36.3429605 115.764736,37.7134373 117.533351,37.7134373 C119.301966,37.7134373 120.353685,36.3429605 120.353685,33.9937615 L120.353732,33.9937615 Z M124.377236,28.5726944 L126.45897,28.5726944 L126.45897,30.417894 L126.509473,30.417894 C126.799778,29.2300553 127.867337,28.4125435 129.067192,28.4592523 C129.318725,28.458357 129.569564,28.4862068 129.815012,28.5422803 L129.815012,30.6237038 C129.497467,30.5247783 129.166212,30.4793583 128.834314,30.4892353 C128.19263,30.4626954 127.571623,30.7234173 127.13435,31.2029432 C126.697076,31.6824691 126.487224,32.3328912 126.559894,32.9834279 L126.559894,39.4136312 L124.377224,39.4136312 L124.377236,28.5726944 Z M139.878417,36.2295304 C139.584795,38.1975238 137.70492,39.5481117 135.299744,39.5481117 C132.206388,39.5481117 130.286381,37.4351127 130.286381,34.045202 C130.286381,30.6447661 132.216712,28.4393874 135.207993,28.4393874 C138.149946,28.4393874 140,30.4997605 140,33.7867783 L140,34.5491894 L132.489698,34.5491894 L132.489698,34.6836578 C132.419578,35.490746 132.692934,36.2896514 133.240231,36.8771582 C133.787529,37.4646651 134.55602,37.7841479 135.350224,37.7543406 C136.409427,37.8555208 137.408048,37.2354308 137.805868,36.2295184 L139.878417,36.2295304 Z M132.499984,32.9939771 L137.81618,32.9939651 C137.85579,32.2687424 137.596852,31.5595506 137.10175,31.0372531 C136.606649,30.5149556 135.920274,30.2269086 135.207993,30.2425102 C134.490077,30.2381424 133.800193,30.5263245 133.291681,31.0430027 C132.783168,31.5596808 132.498162,32.2620434 132.499984,32.9939771 Z M55.834241,13.3520368 C56.7608496,13.2842448 57.6684423,13.6436615 58.3072102,14.3313598 C58.9459781,15.0190581 59.2485916,15.9625509 59.1317584,16.9021481 C59.1317584,19.1846996 57.9217181,20.496755 55.834241,20.496755 L53.3029012,20.496755 L53.3029012,13.3520368 L55.834241,13.3520368 Z M54.3913584,19.4863376 L55.712658,19.4863376 C56.3748603,19.5266925 57.0196481,19.2606976 57.467988,18.7622097 C57.9163278,18.2637217 58.1204881,17.5858113 58.0237812,16.9167086 C58.1134522,16.2503826 57.9063518,15.5780662 57.4591236,15.0836434 C57.0118954,14.5892207 56.3713412,14.3244322 55.712658,14.3616998 L54.3913584,14.3616998 L54.3913584,19.4863376 Z M60.3612951,17.7984051 C60.2706095,16.8319624 60.7251559,15.8966544 61.534299,15.3847467 C62.343442,14.872839 63.3672831,14.872839 64.1764261,15.3847467 C64.9855691,15.8966544 65.4401155,16.8319624 65.3494299,17.7984051 C65.4418409,18.7658863 64.9877094,19.7030083 64.1778489,20.216018 C63.3679885,20.7290277 62.3427365,20.7290277 61.5328761,20.216018 C60.7230156,19.7030083 60.2688841,18.7658863 60.3612951,17.7984051 Z M64.2758652,17.7984051 C64.2758652,16.6296549 63.7608755,15.9461767 62.8570831,15.9461767 C61.9498378,15.9461767 61.4394755,16.6296549 61.4394755,17.798417 C61.4394755,18.9765309 61.949873,19.6547405 62.8570831,19.6547405 C63.760899,19.6547285 64.275877,18.9718371 64.275877,17.7984051 L64.2758652,17.7984051 Z M71.9800164,20.4966473 L70.8972907,20.4966473 L69.8042412,16.5255646 L69.7216629,16.5255646 L68.633194,20.4966473 L67.5607803,20.4966473 L66.1029935,15.1048207 L67.1616421,15.1048207 L68.1090315,19.219101 L68.1870293,19.219101 L69.2743473,15.1048207 L70.2756457,15.1048207 L71.3629636,19.219101 L71.4455419,19.219101 L72.388339,15.1048207 L73.4320717,15.1048207 L71.9800164,20.4966473 Z M74.658179,15.1048207 L75.6629069,15.1048207 L75.6629069,15.9613598 L75.7409047,15.9613598 C76.012135,15.3307205 76.6459219,14.9449523 77.3191236,15.0007424 C77.8403813,14.9607871 78.351177,15.1646549 78.7072876,15.5547837 C79.0633983,15.9449125 79.2261793,16.4789661 79.1496696,17.0061547 L79.1496696,20.4965874 L78.1059369,20.4965874 L78.1059369,17.2733673 C78.1059369,16.4068899 77.736619,15.9759801 76.9647099,15.9759801 C76.6111488,15.9591914 76.268027,16.1006569 76.0253007,16.3632885 C75.7825744,16.6259202 75.6644514,16.9835249 75.7018999,17.3423498 L75.7018999,20.4966473 L74.6581672,20.4966473 L74.658179,15.1048207 Z M80.8127687,13 L81.8565014,13 L81.8565014,20.4966353 L80.8127687,20.4966353 L80.8127687,13 Z M83.3074058,17.7984051 C83.2167898,16.8318991 83.6714079,15.8965675 84.480611,15.3846519 C85.289814,14.8727364 86.3137078,14.8727364 87.1229108,15.3846519 C87.9321139,15.8965675 88.386732,16.8318991 88.2961161,17.7984051 C88.3884097,18.7659209 87.9341949,19.7030165 87.1242943,20.2160036 C86.3143937,20.7289907 85.2891282,20.7289907 84.4792275,20.2160036 C83.6693269,19.7030165 83.2151121,18.7659209 83.3074058,17.7984051 L83.3074058,17.7984051 Z M87.2219759,17.7984051 C87.2219759,16.6296549 86.7069862,15.9461767 85.8031938,15.9461767 C84.8959484,15.9461767 84.3855862,16.6296549 84.3855862,17.798417 C84.3855862,18.9765309 84.8959836,19.6547405 85.8031938,19.6547405 C86.7069979,19.6547285 87.2219876,18.9718371 87.2219876,17.7984051 L87.2219759,17.7984051 Z M89.3949088,18.9718371 C89.3949088,18.0012812 90.103736,17.4417583 91.3619421,17.3622387 L92.7945009,17.2780492 L92.7945009,16.8126542 C92.7945009,16.2431808 92.425183,15.9216179 91.7117752,15.9216179 C91.1291232,15.9216179 90.7253928,16.1397011 90.6095413,16.5209067 L89.5990701,16.5209067 C89.7057371,15.5947865 90.5602245,15.0007663 91.759941,15.0007663 C93.0858328,15.0007663 93.8336531,15.6737074 93.8336531,16.8126542 L93.8336531,20.4966592 L92.8289134,20.4966592 L92.8289134,19.73893 L92.7463351,19.73893 C92.4050859,20.2922819 91.7982336,20.6156851 91.1577925,20.5854946 C90.708828,20.6331056 90.2610601,20.4848656 89.9251854,20.1774223 C89.5893106,19.869979 89.3966776,19.4320273 89.3949088,18.9718371 L89.3949088,18.9718371 Z M92.7945009,18.5111119 L92.7945009,18.0603372 L91.5030216,18.1445267 C90.7746978,18.1942189 90.4443729,18.4467993 90.4443729,18.9221328 C90.4443729,19.4074047 90.8572761,19.6898005 91.4250708,19.6898005 C91.7611931,19.7244891 92.096733,19.6186209 92.3548786,19.3964312 C92.6130241,19.1742416 92.7716707,18.8547562 92.7945009,18.5111119 Z M95.2054086,17.7984051 C95.2054086,16.0946787 96.0644882,15.0153747 97.400692,15.0153747 C98.0754084,14.9836795 98.7073428,15.3522677 99.0224962,15.9613238 L99.100494,15.9613238 L99.100494,13 L100.144227,13 L100.144227,20.4966353 L99.1440793,20.4966353 L99.1440793,19.6447661 L99.061501,19.6447661 C98.722525,20.248769 98.082805,20.6111268 97.4007038,20.5854946 C96.0553155,20.5855545 95.2054086,19.5062265 95.2054086,17.7984051 Z M96.2835891,17.7984051 C96.2835891,18.9420217 96.8123438,19.6301818 97.6966514,19.6301818 C98.5763433,19.6301818 99.1200257,18.9320952 99.1200257,17.8030869 C99.1200257,16.6793472 98.5706353,15.9713102 97.6966514,15.9713102 C96.8180401,15.9713102 96.2835538,16.6641401 96.2835538,17.7984051 L96.2835891,17.7984051 Z M104.462539,17.7984051 C104.371853,16.8319624 104.8264,15.8966544 105.635543,15.3847467 C106.444686,14.872839 107.468527,14.872839 108.27767,15.3847467 C109.086813,15.8966544 109.541359,16.8319624 109.450674,17.7984051 C109.543085,18.7658863 109.088953,19.7030083 108.279093,20.216018 C107.469232,20.7290277 106.44398,20.7290277 105.63412,20.216018 C104.824259,19.7030083 104.370128,18.7658863 104.462539,17.7984051 L104.462539,17.7984051 Z M108.377109,17.7984051 C108.377109,16.6296549 107.862119,15.9461767 106.958327,15.9461767 C106.051082,15.9461767 105.540719,16.6296549 105.540719,17.798417 C105.540719,18.9765309 106.051117,19.6547405 106.958327,19.6547405 C107.862131,19.6547285 108.377109,18.9718371 108.377109,17.7984051 Z M110.85111,15.1048207 L111.85585,15.1048207 L111.85585,15.9613598 L111.933848,15.9613598 C112.205078,15.3307205 112.838865,14.9449523 113.512067,15.0007424 C114.033324,14.9607871 114.54412,15.1646549 114.900231,15.5547837 C115.256341,15.9449125 115.419122,16.4789661 115.342613,17.0061547 L115.342613,20.4965874 L114.29888,20.4965874 L114.29888,17.2733673 C114.29888,16.4068899 113.929562,15.9759801 113.157653,15.9759801 C112.804092,15.9591914 112.46097,16.1006569 112.218244,16.3632885 C111.975517,16.6259202 111.857394,16.9835249 111.894843,17.3423498 L111.894843,20.4966473 L110.85111,20.4966473 L110.85111,15.1048207 Z M121.240295,13.7624231 L121.240295,15.1293795 L122.386114,15.1293795 L122.386114,16.0256843 L121.240295,16.0256843 L121.240295,18.7981895 C121.240295,19.3629811 121.468545,19.6102929 121.988115,19.6102929 C122.121132,19.6098589 122.254016,19.6016592 122.386114,19.5857341 L122.386114,20.4720885 C122.198677,20.5062753 122.008769,20.524463 121.818366,20.5264626 C120.657643,20.5264626 120.195411,20.1101731 120.195411,19.0706349 L120.195411,16.0256364 L119.35584,16.0256364 L119.35584,15.1293316 L120.195411,15.1293316 L120.195411,13.7624231 L121.240295,13.7624231 Z M123.811779,13 L124.846339,13 L124.846339,15.9712982 L124.928917,15.9712982 C125.213176,15.3351397 125.858055,14.9488799 126.54149,15.0054242 C127.059787,14.9766713 127.563668,15.1850273 127.915887,15.5737408 C128.268105,15.9624542 128.431975,16.4910382 128.362863,17.0155184 L128.362863,20.4966473 L127.318085,20.4966473 L127.318085,17.2780252 C127.318085,16.4168044 126.924631,15.980638 126.187182,15.980638 C125.824064,15.9502762 125.466315,16.0848612 125.209575,16.3484128 C124.952836,16.6119645 124.823286,16.9776089 124.855558,17.3475944 L124.855558,20.4966233 L123.811826,20.4966233 L123.811779,13 Z M134.448698,19.0408195 C134.156024,20.0578699 133.190643,20.7149975 132.157071,20.6007137 C131.451866,20.6196927 130.774125,20.3216834 130.303668,19.7857547 C129.833211,19.2498259 129.6176,18.5301577 129.714041,17.8176952 C129.620161,17.1032527 129.834965,16.3824314 130.302802,15.8419749 C130.770639,15.3015185 131.445475,14.9946078 132.152479,15.0007544 C133.624031,15.0007544 134.51178,16.0257322 134.51178,17.7188615 L134.51178,18.0901645 L130.77727,18.0901645 L130.77727,18.1497952 C130.744223,18.549896 130.878254,18.9456471 131.146401,19.2397211 C131.414549,19.5337951 131.791932,19.6989055 132.185741,19.6944464 C132.696375,19.7569446 133.193443,19.4987104 133.443958,19.0407836 L134.448698,19.0408195 Z M130.777247,17.3031827 L133.448515,17.3031827 C133.475121,16.9372566 133.348917,16.5768914 133.101004,16.3108929 C132.853091,16.0448944 132.506526,15.8980006 132.146712,15.9064109 C131.782024,15.9017397 131.430941,16.0474187 131.173104,16.3104017 C130.915267,16.5733847 130.772529,16.9313812 130.77727,17.3031827 L130.777247,17.3031827 Z M40.4690567,28.1562355 C40.4717713,30.6682524 41.9840988,32.9352557 44.3099466,33.9137912 C43.8626344,35.3592444 43.1883728,36.7252515 42.3121376,37.9612135 C41.1353877,39.7122334 39.9015753,41.4229165 37.9432904,41.4545367 C36.0404891,41.4982239 35.4010118,40.3406321 33.2185552,40.3406321 C31.0156524,40.3406321 30.334059,41.4229296 28.5090824,41.4982239 C26.6441212,41.5669349 25.2188327,39.6293482 23.9992958,37.8947536 C21.5617877,34.3523904 19.6637493,27.9118073 22.2083435,23.5294545 C23.4032465,21.3935552 25.6374161,20.0381972 28.0934347,19.9592666 C29.96008,19.9210632 31.6935355,21.2132632 32.8411948,21.2132632 C33.9670659,21.2132632 36.1089853,19.6674736 38.3183878,19.8981595 C40.4184175,19.963518 42.3645197,21.0100653 43.5696197,22.7220929 C41.6679933,23.8850325 40.4978143,25.9359244 40.4690567,28.1562355 L40.4690567,28.1562355 Z M36.8750082,17.5684616 C35.8391006,18.850104 34.269479,19.5883273 32.616339,19.5713959 C32.5112063,17.9644241 33.0525497,16.3817874 34.1211362,15.1720682 C35.2032995,13.9459612 36.710133,13.1704303 38.3413996,13 C38.4687806,14.654605 37.9427465,16.2934353 36.8750082,17.5684616 L36.8750082,17.5684616 Z" id="App-Store"></path>
                        </g>
                    </g>
                </g>
            </g>
        </g>
    </g>
</svg>