<svg id="Capa_1" enable-background="new 0 0 492.179 492.179" height="512" viewBox="0 0 492.179 492.179" width="512" xmlns="http://www.w3.org/2000/svg"><g><g><g><path d="m16.363 127.094v335.228c0 16.49 13.368 29.858 29.858 29.858h406.851c12.562 0 22.745-10.183 22.745-22.745v-342.341l-229.727-19.671h-7.795z" fill="#f6f7f6"/></g></g><g><g><path d="m445.958 41.77h-30c16.49 0 29.858 13.368 29.858 29.858v397.807c0 12.561-10.183 22.745-22.745 22.745h30c12.562 0 22.745-10.183 22.745-22.745v-397.807c.001-16.49-13.367-29.858-29.858-29.858z" fill="#f1f1f1"/></g></g><g><g><path d="m475.817 127.094v-55.466c0-16.49-13.368-29.858-29.858-29.858h-399.738c-16.49 0-29.858 13.368-29.858 29.858v55.466z" fill="#4981f8"/></g></g><g><g><path d="m445.958 41.77h-30c16.49 0 29.858 13.368 29.858 29.858v55.466h30v-55.466c.001-16.49-13.367-29.858-29.858-29.858z" fill="#4071f7"/></g></g><g><g><path d="m78.449 86.691c-11.478 0-20.782-9.304-20.782-20.782v-45.127c0-11.478 9.305-20.782 20.782-20.782 11.478 0 20.782 9.304 20.782 20.782v45.127c0 11.478-9.304 20.782-20.782 20.782z" fill="#bed9fd"/></g></g><g><g><path d="m163.624 86.691c-11.478 0-20.782-9.304-20.782-20.782v-45.127c0-11.478 9.304-20.782 20.782-20.782 11.478 0 20.782 9.304 20.782 20.782v45.127c0 11.478-9.304 20.782-20.782 20.782z" fill="#bed9fd"/></g></g><g><g><path d="m248.798 86.691c-11.478 0-20.782-9.304-20.782-20.782v-45.127c0-11.478 9.305-20.782 20.782-20.782 11.478 0 20.782 9.304 20.782 20.782v45.127c.001 11.478-9.304 20.782-20.782 20.782z" fill="#bed9fd"/></g></g><g><g><path d="m333.973 86.691c-11.478 0-20.782-9.304-20.782-20.782v-45.127c0-11.478 9.304-20.782 20.782-20.782 11.478 0 20.782 9.304 20.782 20.782v45.127c0 11.478-9.304 20.782-20.782 20.782z" fill="#bed9fd"/></g></g><g><g><path d="m415.73 86.691c-11.478 0-20.782-9.304-20.782-20.782v-45.127c0-11.478 9.304-20.782 20.782-20.782 11.478 0 20.782 9.304 20.782 20.782v45.127c0 11.478-9.304 20.782-20.782 20.782z" fill="#bed9fd"/></g></g><g><g><path d="m110.779 234.553h-37.454c-6.76 0-12.24-5.48-12.24-12.24v-37.455c0-6.76 5.48-12.24 12.24-12.24h37.455c6.76 0 12.24 5.48 12.24 12.24v37.455c-.001 6.76-5.481 12.24-12.241 12.24z" fill="#faf0b0"/></g></g><g><g><path d="m215.277 234.553h-37.455c-6.76 0-12.24-5.48-12.24-12.24v-37.455c0-6.76 5.48-12.24 12.24-12.24h37.455c6.76 0 12.24 5.48 12.24 12.24v37.455c0 6.76-5.48 12.24-12.24 12.24z" fill="#faf0b0"/></g></g><g><g><path d="m319.775 234.553h-37.455c-6.76 0-12.24-5.48-12.24-12.24v-37.455c0-6.76 5.48-12.24 12.24-12.24h37.455c6.76 0 12.24 5.48 12.24 12.24v37.455c-.001 6.76-5.481 12.24-12.24 12.24z" fill="#faf0b0"/></g></g><g><g><path d="m424.272 234.553h-37.455c-6.76 0-12.24-5.48-12.24-12.24v-37.455c0-6.76 5.48-12.24 12.24-12.24h37.455c6.76 0 12.24 5.48 12.24 12.24v37.455c0 6.76-5.48 12.24-12.24 12.24z" fill="#faf0b0"/></g></g><g><g><path d="m110.779 332.165h-37.454c-6.76 0-12.24-5.48-12.24-12.24v-37.455c0-6.76 5.48-12.24 12.24-12.24h37.455c6.76 0 12.24 5.48 12.24 12.24v37.455c-.001 6.76-5.481 12.24-12.241 12.24z" fill="#e6989e"/></g></g><g><g><path d="m215.277 332.165h-37.455c-6.76 0-12.24-5.48-12.24-12.24v-37.455c0-6.76 5.48-12.24 12.24-12.24h37.455c6.76 0 12.24 5.48 12.24 12.24v37.455c0 6.76-5.48 12.24-12.24 12.24z" fill="#e6989e"/></g></g><g><g><path d="m319.775 332.165h-37.455c-6.76 0-12.24-5.48-12.24-12.24v-37.455c0-6.76 5.48-12.24 12.24-12.24h37.455c6.76 0 12.24 5.48 12.24 12.24v37.455c-.001 6.76-5.481 12.24-12.24 12.24z" fill="#ddebfd"/></g></g><g><g><path d="m424.272 332.165h-37.455c-6.76 0-12.24-5.48-12.24-12.24v-37.455c0-6.76 5.48-12.24 12.24-12.24h37.455c6.76 0 12.24 5.48 12.24 12.24v37.455c0 6.76-5.48 12.24-12.24 12.24z" fill="#ddebfd"/></g></g><g><g><path d="m110.779 429.776h-37.454c-6.76 0-12.24-5.48-12.24-12.24v-37.455c0-6.76 5.48-12.24 12.24-12.24h37.455c6.76 0 12.24 5.48 12.24 12.24v37.455c-.001 6.76-5.481 12.24-12.241 12.24z" fill="#ddebfd"/></g></g><g><g><path d="m215.277 429.776h-37.455c-6.76 0-12.24-5.48-12.24-12.24v-37.455c0-6.76 5.48-12.24 12.24-12.24h37.455c6.76 0 12.24 5.48 12.24 12.24v37.455c0 6.76-5.48 12.24-12.24 12.24z" fill="#ddebfd"/></g></g><g><g><path d="m319.775 429.776h-37.455c-6.76 0-12.24-5.48-12.24-12.24v-37.455c0-6.76 5.48-12.24 12.24-12.24h37.455c6.76 0 12.24 5.48 12.24 12.24v37.455c-.001 6.76-5.481 12.24-12.24 12.24z" fill="#77d1b3"/></g></g><g><g><path d="m424.272 429.776h-37.455c-6.76 0-12.24-5.48-12.24-12.24v-37.455c0-6.76 5.48-12.24 12.24-12.24h37.455c6.76 0 12.24 5.48 12.24 12.24v37.455c0 6.76-5.48 12.24-12.24 12.24z" fill="#77d1b3"/></g></g><g><g><path d="m110.779 172.618h-30c6.76 0 12.24 5.48 12.24 12.24v37.455c0 6.76-5.48 12.24-12.24 12.24h30c6.76 0 12.24-5.48 12.24-12.24v-37.455c0-6.76-5.48-12.24-12.24-12.24z" fill="#f8e883"/></g></g><g><g><path d="m215.277 172.618h-30c6.76 0 12.24 5.48 12.24 12.24v37.455c0 6.76-5.48 12.24-12.24 12.24h30c6.76 0 12.24-5.48 12.24-12.24v-37.455c0-6.76-5.48-12.24-12.24-12.24z" fill="#f8e883"/></g></g><g><g><path d="m319.775 172.618h-30c6.76 0 12.24 5.48 12.24 12.24v37.455c0 6.76-5.48 12.24-12.24 12.24h30c6.76 0 12.24-5.48 12.24-12.24v-37.455c0-6.76-5.48-12.24-12.24-12.24z" fill="#f8e883"/></g></g><g><g><path d="m424.272 172.618h-30c6.76 0 12.24 5.48 12.24 12.24v37.455c0 6.76-5.48 12.24-12.24 12.24h30c6.76 0 12.24-5.48 12.24-12.24v-37.455c0-6.76-5.48-12.24-12.24-12.24z" fill="#f8e883"/></g></g><g><g><path d="m110.779 270.23h-30c6.76 0 12.24 5.48 12.24 12.24v37.455c0 6.76-5.48 12.24-12.24 12.24h30c6.76 0 12.24-5.48 12.24-12.24v-37.455c0-6.76-5.48-12.24-12.24-12.24z" fill="#e27f86"/></g></g><g><g><path d="m215.277 270.23h-30c6.76 0 12.24 5.48 12.24 12.24v37.455c0 6.76-5.48 12.24-12.24 12.24h30c6.76 0 12.24-5.48 12.24-12.24v-37.455c0-6.76-5.48-12.24-12.24-12.24z" fill="#e27f86"/></g></g><g><g><path d="m319.775 270.23h-30c6.76 0 12.24 5.48 12.24 12.24v37.455c0 6.76-5.48 12.24-12.24 12.24h30c6.76 0 12.24-5.48 12.24-12.24v-37.455c0-6.76-5.48-12.24-12.24-12.24z" fill="#bed9fd"/></g></g><g><g><path d="m424.272 270.23h-30c6.76 0 12.24 5.48 12.24 12.24v37.455c0 6.76-5.48 12.24-12.24 12.24h30c6.76 0 12.24-5.48 12.24-12.24v-37.455c0-6.76-5.48-12.24-12.24-12.24z" fill="#bed9fd"/></g></g><g><g><path d="m110.779 367.842h-30c6.76 0 12.24 5.48 12.24 12.24v37.455c0 6.76-5.48 12.24-12.24 12.24h30c6.76 0 12.24-5.48 12.24-12.24v-37.455c0-6.761-5.48-12.24-12.24-12.24z" fill="#bed9fd"/></g></g><g><g><path d="m215.277 367.842h-30c6.76 0 12.24 5.48 12.24 12.24v37.455c0 6.76-5.48 12.24-12.24 12.24h30c6.76 0 12.24-5.48 12.24-12.24v-37.455c0-6.761-5.48-12.24-12.24-12.24z" fill="#bed9fd"/></g></g><g><g><path d="m319.775 367.842h-30c6.76 0 12.24 5.48 12.24 12.24v37.455c0 6.76-5.48 12.24-12.24 12.24h30c6.76 0 12.24-5.48 12.24-12.24v-37.455c0-6.761-5.48-12.24-12.24-12.24z" fill="#67b59f"/></g></g><g><g><path d="m424.272 367.842h-30c6.76 0 12.24 5.48 12.24 12.24v37.455c0 6.76-5.48 12.24-12.24 12.24h30c6.76 0 12.24-5.48 12.24-12.24v-37.455c0-6.761-5.48-12.24-12.24-12.24z" fill="#67b59f"/></g></g></g></svg>